<svg width="48" height="48" viewBox="0 0 48 48" fill="none" xmlns="http://www.w3.org/2000/svg">
  <rect x="4" y="4" width="40" height="40" rx="4" fill="#0077B5" fill-opacity="0.3"/>
  <path d="M16.5 14H12V29H16.5V14ZM14.25 7C12.81 7 11.65 8.16 11.65 9.6C11.65 11.04 12.81 12.2 14.25 12.2C15.69 12.2 16.85 11.04 16.85 9.6C16.85 8.16 15.69 7 14.25 7ZM36 21.35C36 17.25 35.1 14 30.3 14C28 14 26.45 15.25 25.85 16.4H25.8V14.35H21.5V29H26V21.85C26 20 26.35 18.2 28.55 18.2C30.7 18.2 30.75 20.2 30.75 22V29H35.25V21.35H36Z" fill="#0077B5" fill-opacity="0.5"/>

  <path d="M24 16C21.4 16 19.1 17.05 17.46 18.74L15 16.28V23H21.72L18.91 20.19C20.21 18.83 22.01 18 24 18C28.41 18 32 21.59 32 26C32 30.41 28.41 34 24 34C20.69 34 17.89 31.98 16.74 29H14.62C15.84 33.12 19.57 36 24 36C29.52 36 34 31.52 34 26C34 20.48 29.52 16 24 16Z" fill="#333"/>

  <circle cx="24" cy="26" r="14" stroke="#FF0000" stroke-width="3" fill="none"/>
  <line x1="15" y1="35" x2="33" y2="17" stroke="#FF0000" stroke-width="3"/>
</svg>
