<svg width="96" height="96" viewBox="0 0 96 96" fill="none" xmlns="http://www.w3.org/2000/svg">
  <rect x="8" y="8" width="80" height="80" rx="8" fill="#0077B5" fill-opacity="0.3"/>
  <path d="M33 28H24V58H33V28ZM28.5 14C25.62 14 23.3 16.32 23.3 19.2C23.3 22.08 25.62 24.4 28.5 24.4C31.38 24.4 33.7 22.08 33.7 19.2C33.7 16.32 31.38 14 28.5 14ZM72 42.7C72 34.5 70.2 28 60.6 28C56 28 52.9 30.5 51.7 32.8H51.6V28.7H43V58H52V43.7C52 40 52.7 36.4 57.1 36.4C61.4 36.4 61.5 40.4 61.5 44V58H70.5V42.7H72Z" fill="#0077B5" fill-opacity="0.5"/>

  <path d="M48 32C42.8 32 38.2 34.1 34.92 37.48L30 32.56V46H43.44L37.82 40.38C40.42 37.66 44.02 36 48 36C56.82 36 64 43.18 64 52C64 60.82 56.82 68 48 68C41.38 68 35.78 63.96 33.48 58H29.24C31.68 66.24 39.14 72 48 72C59.04 72 68 63.04 68 52C68 40.96 59.04 32 48 32Z" fill="#333"/>

  <circle cx="48" cy="52" r="28" stroke="#FF0000" stroke-width="6" fill="none"/>
  <line x1="30" y1="70" x2="66" y2="34" stroke="#FF0000" stroke-width="6"/>
</svg>
